# WaveFront *.obj file (generated by Autodesk ATF)

mtllib 9937182a-5ec7-4f6b-a2b2-262ed1b7d5fa.mtl

g Body1

v 0.000000 58.903429 132.849235
v 0.000000 58.903429 130.293784
v 5.000000 58.903429 130.293784
v 5.000000 58.903429 132.849235
v 0.000000 58.608995 130.199342
v 0.000000 58.301010 130.171835
v 0.000000 57.994499 130.212607
v 0.000000 57.704415 130.319667
v 0.000000 57.444906 130.487794
v 0.000000 57.228634 130.708786
v 0.000000 57.066147 130.971862
v 0.000000 56.965372 131.264190
v 0.000000 56.931225 131.571509
v 0.000000 56.965372 131.878828
v 0.000000 57.066147 132.171156
v 0.000000 57.228634 132.434233
v 0.000000 57.444906 132.655224
v 0.000000 57.704415 132.823351
v 0.000000 57.994499 132.930412
v 0.000000 58.301010 132.971183
v 0.000000 58.608995 132.943677
v 5.000000 58.608995 132.943677
v 5.000000 58.301010 132.971183
v 5.000000 57.994499 132.930412
v 5.000000 57.704415 132.823351
v 5.000000 57.444906 132.655224
v 5.000000 57.228634 132.434233
v 5.000000 57.066147 132.171156
v 5.000000 56.965372 131.878828
v 5.000000 56.931225 131.571509
v 5.000000 56.965372 131.264190
v 5.000000 57.066147 130.971862
v 5.000000 57.228634 130.708786
v 5.000000 57.444906 130.487794
v 5.000000 57.704415 130.319667
v 5.000000 57.994499 130.212607
v 5.000000 58.301010 130.171835
v 5.000000 58.608995 130.199342
v 0.000000 59.892770 134.015191
v 0.000000 59.502593 134.224413
v 0.000000 59.085115 134.371804
v 0.000000 58.650067 134.453928
v 0.000000 58.207587 134.468872
v 0.000000 57.767988 134.416288
v 0.000000 57.341517 134.297400
v 0.000000 56.938114 134.114979
v 0.000000 56.567179 133.873278
v 0.000000 56.237359 133.577930
v 0.000000 55.956341 133.235818
v 0.000000 55.730674 132.854916
v 0.000000 55.565618 132.444102
v 0.000000 55.465021 132.012950
v 0.000000 55.431225 131.571509
v 0.000000 55.465021 131.130069
v 0.000000 55.565618 130.698917
v 0.000000 55.730674 130.288103
v 0.000000 55.956341 129.907201
v 0.000000 56.237359 129.565089
v 0.000000 56.567179 129.269740
v 0.000000 56.938114 129.028039
v 0.000000 57.341517 128.845619
v 0.000000 57.767988 128.726731
v 0.000000 58.207587 128.674146
v 0.000000 58.650067 128.689090
v 0.000000 59.085115 128.771215
v 0.000000 59.502593 128.918606
v 0.000000 59.892770 129.127828
v 5.000000 59.892770 129.127828
v 5.000000 59.502593 128.918606
v 5.000000 59.085115 128.771215
v 5.000000 58.650067 128.689090
v 5.000000 58.207587 128.674146
v 5.000000 57.767988 128.726731
v 5.000000 57.341517 128.845619
v 5.000000 56.938114 129.028039
v 5.000000 56.567179 129.269740
v 5.000000 56.237359 129.565089
v 5.000000 55.956341 129.907201
v 5.000000 55.730674 130.288103
v 5.000000 55.565618 130.698917
v 5.000000 55.465021 131.130069
v 5.000000 55.431225 131.571509
v 5.000000 55.465021 132.012950
v 5.000000 55.565618 132.444102
v 5.000000 55.730674 132.854916
v 5.000000 55.956341 133.235818
v 5.000000 56.237359 133.577930
v 5.000000 56.567179 133.873278
v 5.000000 56.938114 134.114979
v 5.000000 57.341517 134.297400
v 5.000000 57.767988 134.416288
v 5.000000 58.207587 134.468872
v 5.000000 58.650067 134.453928
v 5.000000 59.085115 134.371804
v 5.000000 59.502593 134.224413
v 5.000000 59.892770 134.015191
vt 0.000000 0.000000 0.000000
vt 0.255545 0.000000 0.000000
vt 0.000000 0.500000 0.000000
vt 0.255545 0.500000 0.000000
vt 0.500000 0.938593 0.000000
vt -0.000000 0.938593 0.000000
vt 0.500000 0.907608 0.000000
vt 0.000000 0.907608 0.000000
vt 0.500000 0.876624 0.000000
vt 0.000000 0.876624 0.000000
vt 0.500000 0.845640 0.000000
vt 0.000000 0.845640 0.000000
vt 0.500000 0.814656 0.000000
vt -0.000000 0.814656 0.000000
vt 0.500000 0.783671 0.000000
vt 0.000000 0.783671 0.000000
vt 0.500000 0.752687 0.000000
vt -0.000000 0.752687 0.000000
vt 0.500000 0.721703 0.000000
vt -0.000000 0.721703 0.000000
vt 0.500000 0.690719 0.000000
vt -0.000000 0.690719 0.000000
vt 0.500000 0.659734 0.000000
vt 0.000000 0.659734 0.000000
vt 0.500000 0.628750 0.000000
vt -0.000000 0.628750 0.000000
vt 0.500000 0.597766 0.000000
vt -0.000000 0.597766 0.000000
vt 0.500000 0.566782 0.000000
vt -0.000000 0.566782 0.000000
vt 0.500000 0.535797 0.000000
vt -0.000000 0.535797 0.000000
vt 0.500000 0.504813 0.000000
vt -0.000000 0.504813 0.000000
vt 0.500000 0.473829 0.000000
vt -0.000000 0.473829 0.000000
vt 0.500000 0.442845 0.000000
vt 0.000000 0.442845 0.000000
vt 0.500000 0.411860 0.000000
vt -0.000000 0.411860 0.000000
vt 0.500000 0.380876 0.000000
vt -0.000000 0.380876 0.000000
vt -0.500000 0.746164 0.000000
vt -0.000000 0.746164 0.000000
vt -0.500000 0.790481 0.000000
vt -0.000000 0.790481 0.000000
vt -0.500000 0.834797 0.000000
vt -0.000000 0.834797 0.000000
vt -0.500000 0.879113 0.000000
vt -0.000000 0.879113 0.000000
vt -0.500000 0.923429 0.000000
vt -0.000000 0.923429 0.000000
vt -0.500000 0.967746 0.000000
vt -0.000000 0.967746 0.000000
vt -0.500000 1.012062 0.000000
vt -0.000000 1.012062 0.000000
vt -0.500000 1.056378 0.000000
vt -0.000000 1.056378 0.000000
vt -0.500000 1.100695 0.000000
vt -0.000000 1.100695 0.000000
vt -0.500000 1.145011 0.000000
vt -0.000000 1.145011 0.000000
vt -0.500000 1.189327 0.000000
vt -0.000000 1.189327 0.000000
vt -0.500000 1.233644 0.000000
vt -0.000000 1.233644 0.000000
vt -0.500000 1.277960 0.000000
vt -0.000000 1.277960 0.000000
vt -0.500000 1.322276 0.000000
vt -0.000000 1.322276 0.000000
vt -0.500000 1.366593 0.000000
vt -0.000000 1.366593 0.000000
vt -0.500000 1.410909 0.000000
vt -0.000000 1.410909 0.000000
vt -0.500000 1.455225 0.000000
vt -0.000000 1.455225 0.000000
vt -0.500000 1.499542 0.000000
vt -0.000000 1.499542 0.000000
vt -0.500000 1.543858 0.000000
vt -0.000000 1.543858 0.000000
vt -0.500000 1.588174 0.000000
vt -0.000000 1.588174 0.000000
vt -0.500000 1.632491 0.000000
vt -0.000000 1.632491 0.000000
vt -0.500000 1.676807 0.000000
vt -0.000000 1.676807 0.000000
vt -0.500000 1.721123 0.000000
vt -0.000000 1.721123 0.000000
vt -0.500000 1.765440 0.000000
vt -0.000000 1.765440 0.000000
vt -0.500000 1.809756 0.000000
vt -0.000000 1.809756 0.000000
vt -0.500000 1.854072 0.000000
vt -0.000000 1.854072 0.000000
vt -0.500000 1.898389 0.000000
vt -0.000000 1.898389 0.000000
vt -0.500000 1.942705 0.000000
vt -0.000000 1.942705 0.000000
vt -0.500000 1.987021 0.000000
vt -0.000000 1.987021 0.000000
vt 0.000000 0.000000 0.000000
vt 0.488736 0.000000 0.000000
vt 0.000000 0.500000 0.000000
vt 0.488736 0.500000 0.000000
vt 0.137217 0.094700 0.000000
vt 0.280029 0.142312 0.000000
vt 0.127773 0.124143 0.000000
vt 0.265290 0.184060 0.000000
vt 0.244368 0.223077 0.000000
vt 0.288242 0.098807 0.000000
vt 0.139967 0.063901 0.000000
vt 0.289736 0.054559 0.000000
vt 0.284478 0.010599 0.000000
vt 0.135890 0.033250 0.000000
vt 0.272589 -0.032048 0.000000
vt 0.125184 0.004242 0.000000
vt 0.254347 -0.072388 0.000000
vt 0.108372 -0.021709 0.000000
vt 0.230177 -0.109482 0.000000
vt 0.200642 -0.142464 0.000000
vt 0.086272 -0.043336 0.000000
vt 0.166431 -0.170566 0.000000
vt 0.059965 -0.059585 0.000000
vt 0.128341 -0.193132 0.000000
vt 0.087259 -0.209638 0.000000
vt 0.030732 -0.069663 0.000000
vt 0.044144 -0.219698 0.000000
vt -0.000000 -0.073077 0.000000
vt 0.000000 -0.223077 0.000000
vt -0.044144 -0.219698 0.000000
vt -0.030732 -0.069663 0.000000
vt -0.087259 -0.209638 0.000000
vt -0.059965 -0.059585 0.000000
vt -0.128341 -0.193132 0.000000
vt -0.166431 -0.170566 0.000000
vt -0.086272 -0.043336 0.000000
vt -0.200642 -0.142464 0.000000
vt -0.108372 -0.021709 0.000000
vt -0.230177 -0.109482 0.000000
vt -0.254347 -0.072388 0.000000
vt -0.125184 0.004242 0.000000
vt -0.272589 -0.032048 0.000000
vt -0.135890 0.033250 0.000000
vt -0.284478 0.010599 0.000000
vt -0.139967 0.063901 0.000000
vt -0.289736 0.054559 0.000000
vt -0.288242 0.098807 0.000000
vt -0.137217 0.094700 0.000000
vt -0.280029 0.142312 0.000000
vt -0.127773 0.124143 0.000000
vt -0.265290 0.184060 0.000000
vt -0.244368 0.223077 0.000000
vt 0.137217 0.094700 0.000000
vt 0.280029 0.142312 0.000000
vt 0.127773 0.124143 0.000000
vt 0.265290 0.184060 0.000000
vt 0.244368 0.223077 0.000000
vt 0.288242 0.098807 0.000000
vt 0.139967 0.063901 0.000000
vt 0.289736 0.054559 0.000000
vt 0.284478 0.010599 0.000000
vt 0.135890 0.033250 0.000000
vt 0.272589 -0.032048 0.000000
vt 0.125184 0.004242 0.000000
vt 0.254347 -0.072388 0.000000
vt 0.108372 -0.021709 0.000000
vt 0.230177 -0.109482 0.000000
vt 0.200642 -0.142464 0.000000
vt 0.086272 -0.043336 0.000000
vt 0.166431 -0.170566 0.000000
vt 0.059965 -0.059585 0.000000
vt 0.128341 -0.193132 0.000000
vt 0.087259 -0.209638 0.000000
vt 0.030732 -0.069663 0.000000
vt 0.044144 -0.219698 0.000000
vt 0.000000 -0.073077 0.000000
vt -0.000000 -0.223077 0.000000
vt -0.044144 -0.219698 0.000000
vt -0.030732 -0.069663 0.000000
vt -0.087259 -0.209638 0.000000
vt -0.059965 -0.059585 0.000000
vt -0.128341 -0.193132 0.000000
vt -0.166431 -0.170566 0.000000
vt -0.086272 -0.043336 0.000000
vt -0.200642 -0.142464 0.000000
vt -0.108372 -0.021709 0.000000
vt -0.230177 -0.109482 0.000000
vt -0.254347 -0.072388 0.000000
vt -0.125184 0.004242 0.000000
vt -0.272589 -0.032048 0.000000
vt -0.135890 0.033250 0.000000
vt -0.284478 0.010599 0.000000
vt -0.139967 0.063901 0.000000
vt -0.289736 0.054559 0.000000
vt -0.288242 0.098807 0.000000
vt -0.137217 0.094700 0.000000
vt -0.280029 0.142312 0.000000
vt -0.127773 0.124143 0.000000
vt -0.265290 0.184060 0.000000
vt -0.244368 0.223077 0.000000
vn 0.000000 -0.100000 0.000000
vn 0.000000 -0.100000 0.000000
vn 0.000000 -0.100000 0.000000
vn 0.000000 -0.100000 0.000000
vn 0.000000 -0.040872 0.091266
vn 0.000000 -0.040872 0.091266
vn 0.000000 -0.019841 0.098012
vn 0.000000 -0.019841 0.098012
vn 0.000000 0.002158 0.099977
vn 0.000000 0.002158 0.099977
vn 0.000000 0.024052 0.097064
vn 0.000000 0.024052 0.097064
vn 0.000000 0.044772 0.089417
vn 0.000000 0.044772 0.089417
vn 0.000000 0.063309 0.077408
vn 0.000000 0.063309 0.077408
vn 0.000000 0.078757 0.061623
vn 0.000000 0.078757 0.061623
vn 0.000000 0.090363 0.042832
vn 0.000000 0.090363 0.042832
vn 0.000000 0.097561 0.021951
vn 0.000000 0.097561 0.021951
vn 0.000000 0.100000 -0.000000
vn 0.000000 0.100000 -0.000000
vn 0.000000 0.097561 -0.021951
vn 0.000000 0.097561 -0.021951
vn 0.000000 0.090363 -0.042832
vn 0.000000 0.090363 -0.042832
vn 0.000000 0.078757 -0.061623
vn 0.000000 0.078757 -0.061623
vn 0.000000 0.063309 -0.077408
vn 0.000000 0.063309 -0.077408
vn 0.000000 0.044772 -0.089417
vn 0.000000 0.044772 -0.089417
vn 0.000000 0.024052 -0.097064
vn 0.000000 0.024052 -0.097064
vn 0.000000 0.002158 -0.099977
vn 0.000000 0.002158 -0.099977
vn 0.000000 -0.019841 -0.098012
vn 0.000000 -0.019841 -0.098012
vn 0.000000 -0.040872 -0.091266
vn 0.000000 -0.040872 -0.091266
vn 0.000000 0.053846 0.084265
vn 0.000000 0.053846 0.084265
vn 0.000000 0.040392 0.091479
vn 0.000000 0.040392 0.091479
vn 0.000000 0.025996 0.096562
vn 0.000000 0.025996 0.096562
vn 0.000000 0.010995 0.099394
vn 0.000000 0.010995 0.099394
vn 0.000000 -0.004263 0.099909
vn 0.000000 -0.004263 0.099909
vn 0.000000 -0.019422 0.098096
vn 0.000000 -0.019422 0.098096
vn 0.000000 -0.034128 0.093996
vn 0.000000 -0.034128 0.093996
vn 0.000000 -0.048038 0.087706
vn 0.000000 -0.048038 0.087706
vn 0.000000 -0.060829 0.079371
vn 0.000000 -0.060829 0.079371
vn 0.000000 -0.072202 0.069187
vn 0.000000 -0.072202 0.069187
vn 0.000000 -0.081893 0.057390
vn 0.000000 -0.081893 0.057390
vn 0.000000 -0.089674 0.044255
vn 0.000000 -0.089674 0.044255
vn 0.000000 -0.095366 0.030089
vn 0.000000 -0.095366 0.030089
vn 0.000000 -0.098835 0.015222
vn 0.000000 -0.098835 0.015222
vn 0.000000 -0.100000 0.000000
vn 0.000000 -0.100000 0.000000
vn 0.000000 -0.098835 -0.015222
vn 0.000000 -0.098835 -0.015222
vn 0.000000 -0.095366 -0.030089
vn 0.000000 -0.095366 -0.030089
vn 0.000000 -0.089674 -0.044255
vn 0.000000 -0.089674 -0.044255
vn 0.000000 -0.081893 -0.057390
vn 0.000000 -0.081893 -0.057390
vn 0.000000 -0.072202 -0.069187
vn 0.000000 -0.072202 -0.069187
vn 0.000000 -0.060829 -0.079371
vn 0.000000 -0.060829 -0.079371
vn 0.000000 -0.048038 -0.087706
vn 0.000000 -0.048038 -0.087706
vn 0.000000 -0.034128 -0.093996
vn 0.000000 -0.034128 -0.093996
vn 0.000000 -0.019422 -0.098096
vn 0.000000 -0.019422 -0.098096
vn 0.000000 -0.004263 -0.099909
vn 0.000000 -0.004263 -0.099909
vn -0.000000 0.010995 -0.099394
vn -0.000000 0.010995 -0.099394
vn -0.000000 0.025996 -0.096562
vn -0.000000 0.025996 -0.096562
vn -0.000000 0.040392 -0.091479
vn -0.000000 0.040392 -0.091479
vn -0.000000 0.053846 -0.084265
vn -0.000000 0.053846 -0.084265
vn 0.000000 0.100000 0.000000
vn 0.000000 0.100000 0.000000
vn 0.000000 0.100000 0.000000
vn 0.000000 0.100000 0.000000
vn 0.100000 0.000000 0.000000
vn 0.100000 0.000000 0.000000
vn 0.100000 0.000000 0.000000
vn 0.100000 0.000000 0.000000
vn 0.100000 0.000000 0.000000
vn 0.100000 0.000000 0.000000
vn 0.100000 0.000000 0.000000
vn 0.100000 0.000000 0.000000
vn 0.100000 0.000000 0.000000
vn 0.100000 0.000000 0.000000
vn 0.100000 0.000000 0.000000
vn 0.100000 0.000000 0.000000
vn 0.100000 0.000000 0.000000
vn 0.100000 0.000000 0.000000
vn 0.100000 0.000000 0.000000
vn 0.100000 0.000000 0.000000
vn 0.100000 0.000000 0.000000
vn 0.100000 0.000000 0.000000
vn 0.100000 0.000000 0.000000
vn 0.100000 0.000000 0.000000
vn 0.100000 0.000000 0.000000
vn 0.100000 0.000000 0.000000
vn 0.100000 0.000000 0.000000
vn 0.100000 0.000000 0.000000
vn 0.100000 0.000000 0.000000
vn 0.100000 0.000000 0.000000
vn 0.100000 0.000000 0.000000
vn 0.100000 0.000000 0.000000
vn 0.100000 0.000000 0.000000
vn 0.100000 0.000000 0.000000
vn 0.100000 0.000000 0.000000
vn 0.100000 0.000000 0.000000
vn 0.100000 0.000000 0.000000
vn 0.100000 0.000000 0.000000
vn 0.100000 0.000000 0.000000
vn 0.100000 0.000000 0.000000
vn 0.100000 0.000000 0.000000
vn 0.100000 0.000000 0.000000
vn 0.100000 0.000000 0.000000
vn 0.100000 0.000000 0.000000
vn 0.100000 0.000000 0.000000
vn 0.100000 0.000000 0.000000
vn 0.100000 0.000000 0.000000
vn 0.100000 0.000000 0.000000
vn 0.100000 0.000000 0.000000
vn 0.100000 0.000000 0.000000
vn 0.100000 0.000000 0.000000
vn 0.100000 0.000000 0.000000
vn -0.100000 0.000000 0.000000
vn -0.100000 0.000000 0.000000
vn -0.100000 0.000000 0.000000
vn -0.100000 0.000000 0.000000
vn -0.100000 0.000000 0.000000
vn -0.100000 0.000000 0.000000
vn -0.100000 0.000000 0.000000
vn -0.100000 0.000000 0.000000
vn -0.100000 0.000000 0.000000
vn -0.100000 0.000000 0.000000
vn -0.100000 0.000000 0.000000
vn -0.100000 0.000000 0.000000
vn -0.100000 0.000000 0.000000
vn -0.100000 0.000000 0.000000
vn -0.100000 0.000000 0.000000
vn -0.100000 0.000000 0.000000
vn -0.100000 0.000000 0.000000
vn -0.100000 0.000000 0.000000
vn -0.100000 0.000000 0.000000
vn -0.100000 0.000000 0.000000
vn -0.100000 0.000000 0.000000
vn -0.100000 0.000000 0.000000
vn -0.100000 0.000000 0.000000
vn -0.100000 0.000000 0.000000
vn -0.100000 0.000000 0.000000
vn -0.100000 0.000000 0.000000
vn -0.100000 0.000000 0.000000
vn -0.100000 0.000000 0.000000
vn -0.100000 0.000000 0.000000
vn -0.100000 0.000000 0.000000
vn -0.100000 0.000000 0.000000
vn -0.100000 0.000000 0.000000
vn -0.100000 0.000000 0.000000
vn -0.100000 0.000000 0.000000
vn -0.100000 0.000000 0.000000
vn -0.100000 0.000000 0.000000
vn -0.100000 0.000000 0.000000
vn -0.100000 0.000000 0.000000
vn -0.100000 0.000000 0.000000
vn -0.100000 0.000000 0.000000
vn -0.100000 0.000000 0.000000
vn -0.100000 0.000000 0.000000
vn -0.100000 0.000000 0.000000
vn -0.100000 0.000000 0.000000
vn -0.100000 0.000000 0.000000
vn -0.100000 0.000000 0.000000
vn -0.100000 0.000000 0.000000
vn -0.100000 0.000000 0.000000
usemtl Steel_-_Satin
f 1/1/1 2/2/2 4/3/3
f 4/3/3 2/2/2 3/4/4
f 3/5/5 2/6/6 38/7/7
f 38/7/7 2/6/6 5/8/8
f 38/7/7 5/8/8 37/9/9
f 37/9/9 5/8/8 6/10/10
f 37/9/9 6/10/10 36/11/11
f 36/11/11 6/10/10 7/12/12
f 36/11/11 7/12/12 35/13/13
f 35/13/13 7/12/12 8/14/14
f 35/13/13 8/14/14 34/15/15
f 34/15/15 8/14/14 9/16/16
f 34/15/15 9/16/16 33/17/17
f 33/17/17 9/16/16 10/18/18
f 33/17/17 10/18/18 32/19/19
f 32/19/19 10/18/18 11/20/20
f 32/19/19 11/20/20 31/21/21
f 31/21/21 11/20/20 12/22/22
f 31/21/21 12/22/22 30/23/23
f 30/23/23 12/22/22 13/24/24
f 30/23/23 13/24/24 29/25/25
f 29/25/25 13/24/24 14/26/26
f 29/25/25 14/26/26 28/27/27
f 28/27/27 14/26/26 15/28/28
f 28/27/27 15/28/28 27/29/29
f 27/29/29 15/28/28 16/30/30
f 27/29/29 16/30/30 26/31/31
f 26/31/31 16/30/30 17/32/32
f 26/31/31 17/32/32 25/33/33
f 25/33/33 17/32/32 18/34/34
f 25/33/33 18/34/34 24/35/35
f 24/35/35 18/34/34 19/36/36
f 24/35/35 19/36/36 23/37/37
f 23/37/37 19/36/36 20/38/38
f 23/37/37 20/38/38 22/39/39
f 22/39/39 20/38/38 21/40/40
f 22/39/39 21/40/40 4/41/41
f 4/41/41 21/40/40 1/42/42
f 96/43/43 39/44/44 95/45/45
f 95/45/45 39/44/44 40/46/46
f 95/45/45 40/46/46 94/47/47
f 94/47/47 40/46/46 41/48/48
f 94/47/47 41/48/48 93/49/49
f 93/49/49 41/48/48 42/50/50
f 93/49/49 42/50/50 92/51/51
f 92/51/51 42/50/50 43/52/52
f 92/51/51 43/52/52 91/53/53
f 91/53/53 43/52/52 44/54/54
f 91/53/53 44/54/54 90/55/55
f 90/55/55 44/54/54 45/56/56
f 90/55/55 45/56/56 89/57/57
f 89/57/57 45/56/56 46/58/58
f 89/57/57 46/58/58 88/59/59
f 88/59/59 46/58/58 47/60/60
f 88/59/59 47/60/60 87/61/61
f 87/61/61 47/60/60 48/62/62
f 87/61/61 48/62/62 86/63/63
f 86/63/63 48/62/62 49/64/64
f 86/63/63 49/64/64 85/65/65
f 85/65/65 49/64/64 50/66/66
f 85/65/65 50/66/66 84/67/67
f 84/67/67 50/66/66 51/68/68
f 84/67/67 51/68/68 83/69/69
f 83/69/69 51/68/68 52/70/70
f 83/69/69 52/70/70 82/71/71
f 82/71/71 52/70/70 53/72/72
f 82/71/71 53/72/72 81/73/73
f 81/73/73 53/72/72 54/74/74
f 81/73/73 54/74/74 80/75/75
f 80/75/75 54/74/74 55/76/76
f 80/75/75 55/76/76 79/77/77
f 79/77/77 55/76/76 56/78/78
f 79/77/77 56/78/78 78/79/79
f 78/79/79 56/78/78 57/80/80
f 78/79/79 57/80/80 77/81/81
f 77/81/81 57/80/80 58/82/82
f 77/81/81 58/82/82 76/83/83
f 76/83/83 58/82/82 59/84/84
f 76/83/83 59/84/84 75/85/85
f 75/85/85 59/84/84 60/86/86
f 75/85/85 60/86/86 74/87/87
f 74/87/87 60/86/86 61/88/88
f 74/87/87 61/88/88 73/89/89
f 73/89/89 61/88/88 62/90/90
f 73/89/89 62/90/90 72/91/91
f 72/91/91 62/90/90 63/92/92
f 72/91/91 63/92/92 71/93/93
f 71/93/93 63/92/92 64/94/94
f 71/93/93 64/94/94 70/95/95
f 70/95/95 64/94/94 65/96/96
f 70/95/95 65/96/96 69/97/97
f 69/97/97 65/96/96 66/98/98
f 69/97/97 66/98/98 68/99/99
f 68/99/99 66/98/98 67/100/100
f 67/101/101 39/102/102 68/103/103
f 68/103/103 39/102/102 96/104/104
f 38/105/105 70/106/106 3/107/107
f 3/107/107 70/106/106 69/108/108
f 3/107/107 69/108/108 68/109/109
f 70/106/106 38/105/105 71/110/110
f 71/110/110 38/105/105 37/111/111
f 71/110/110 37/111/111 72/112/112
f 72/112/112 37/111/111 73/113/113
f 73/113/113 37/111/111 36/114/114
f 73/113/113 36/114/114 74/115/115
f 74/115/115 36/114/114 35/116/116
f 74/115/115 35/116/116 75/117/117
f 75/117/117 35/116/116 34/118/118
f 75/117/117 34/118/118 76/119/119
f 76/119/119 34/118/118 77/120/120
f 77/120/120 34/118/118 33/121/121
f 77/120/120 33/121/121 78/122/122
f 78/122/122 33/121/121 32/123/123
f 78/122/122 32/123/123 79/124/124
f 79/124/124 32/123/123 80/125/125
f 80/125/125 32/123/123 31/126/126
f 80/125/125 31/126/126 81/127/127
f 81/127/127 31/126/126 30/128/128
f 81/127/127 30/128/128 82/129/129
f 82/129/129 30/128/128 83/130/130
f 83/130/130 30/128/128 29/131/131
f 83/130/130 29/131/131 84/132/132
f 84/132/132 29/131/131 28/133/133
f 84/132/132 28/133/133 85/134/134
f 85/134/134 28/133/133 86/135/135
f 86/135/135 28/133/133 27/136/136
f 86/135/135 27/136/136 87/137/137
f 87/137/137 27/136/136 26/138/138
f 87/137/137 26/138/138 88/139/139
f 88/139/139 26/138/138 89/140/140
f 89/140/140 26/138/138 25/141/141
f 89/140/140 25/141/141 90/142/142
f 90/142/142 25/141/141 24/143/143
f 90/142/142 24/143/143 91/144/144
f 91/144/144 24/143/143 23/145/145
f 91/144/144 23/145/145 92/146/146
f 92/146/146 23/145/145 93/147/147
f 93/147/147 23/145/145 22/148/148
f 93/147/147 22/148/148 94/149/149
f 94/149/149 22/148/148 4/150/150
f 94/149/149 4/150/150 95/151/151
f 95/151/151 4/150/150 96/152/152
f 96/152/152 4/150/150 3/107/107
f 96/152/152 3/107/107 68/109/109
f 21/153/153 41/154/154 1/155/155
f 1/155/155 41/154/154 40/156/156
f 1/155/155 40/156/156 39/157/157
f 41/154/154 21/153/153 42/158/158
f 42/158/158 21/153/153 20/159/159
f 42/158/158 20/159/159 43/160/160
f 43/160/160 20/159/159 44/161/161
f 44/161/161 20/159/159 19/162/162
f 44/161/161 19/162/162 45/163/163
f 45/163/163 19/162/162 18/164/164
f 45/163/163 18/164/164 46/165/165
f 46/165/165 18/164/164 17/166/166
f 46/165/165 17/166/166 47/167/167
f 47/167/167 17/166/166 48/168/168
f 48/168/168 17/166/166 16/169/169
f 48/168/168 16/169/169 49/170/170
f 49/170/170 16/169/169 15/171/171
f 49/170/170 15/171/171 50/172/172
f 50/172/172 15/171/171 51/173/173
f 51/173/173 15/171/171 14/174/174
f 51/173/173 14/174/174 52/175/175
f 52/175/175 14/174/174 13/176/176
f 52/175/175 13/176/176 53/177/177
f 53/177/177 13/176/176 54/178/178
f 54/178/178 13/176/176 12/179/179
f 54/178/178 12/179/179 55/180/180
f 55/180/180 12/179/179 11/181/181
f 55/180/180 11/181/181 56/182/182
f 56/182/182 11/181/181 57/183/183
f 57/183/183 11/181/181 10/184/184
f 57/183/183 10/184/184 58/185/185
f 58/185/185 10/184/184 9/186/186
f 58/185/185 9/186/186 59/187/187
f 59/187/187 9/186/186 60/188/188
f 60/188/188 9/186/186 8/189/189
f 60/188/188 8/189/189 61/190/190
f 61/190/190 8/189/189 7/191/191
f 61/190/190 7/191/191 62/192/192
f 62/192/192 7/191/191 6/193/193
f 62/192/192 6/193/193 63/194/194
f 63/194/194 6/193/193 64/195/195
f 64/195/195 6/193/193 5/196/196
f 64/195/195 5/196/196 65/197/197
f 65/197/197 5/196/196 2/198/198
f 65/197/197 2/198/198 66/199/199
f 66/199/199 2/198/198 67/200/200
f 67/200/200 2/198/198 1/155/155
f 67/200/200 1/155/155 39/157/157

# 96 vertices
# 200 texture params
# 200 normals
# 192 facets

# 1 groups
